<?xml version="1.0" encoding="UTF-8"?>
<!DOCTYPE svg PUBLIC "-//W3C//DTD SVG 1.1//EN" "http://www.w3.org/Graphics/SVG/1.1/DTD/svg11.dtd">
<svg xmlns="http://www.w3.org/2000/svg" xmlns:xlink="http://www.w3.org/1999/xlink" version="1.1" width="1014px" height="1288px" viewBox="-0.5 -0.5 1014 1288"><defs><style type="text/css">@import url(https://fonts.googleapis.com/css?family=Architects+Daughter);&#xa;</style></defs><g><path d="M 69 393 Q 180 420 225 511.5 Q 270 603 300 738 Q 330 873 375 753 Q 420 633 450 633 Q 480 633 480 693 Q 480 753 480 901.5 Q 480 1050 525 1111.5 Q 570 1173 600 1126.5 Q 630 1080 645 1005 Q 660 930 645 810 Q 630 690 630 646.5 Q 630 603 645 556.5 Q 660 510 690 585 Q 720 660 750 675 Q 780 690 795 660 Q 810 630 817.5 549 Q 825 468 847.5 504 Q 870 540 900 555 Q 930 570 930 495 Q 930 420 960 360" fill="none" stroke="#000000" stroke-width="15" stroke-miterlimit="10" pointer-events="stroke" transform="translate(6,9)" opacity="0.25"/><path d="M 69 393 Q 180 420 225 511.5 Q 270 603 300 738 Q 330 873 375 753 Q 420 633 450 633 Q 480 633 480 693 Q 480 753 480 901.5 Q 480 1050 525 1111.5 Q 570 1173 600 1126.5 Q 630 1080 645 1005 Q 660 930 645 810 Q 630 690 630 646.5 Q 630 603 645 556.5 Q 660 510 690 585 Q 720 660 750 675 Q 780 690 795 660 Q 810 630 817.5 549 Q 825 468 847.5 504 Q 870 540 900 555 Q 930 570 930 495 Q 930 420 960 360" fill="none" stroke="#1565c0" stroke-width="15" stroke-miterlimit="10" pointer-events="stroke"/><path d="M 510 393 L 546.54 383.4 L 553.5 333 L 560.46 383.4 L 597 393 L 560.46 402.6 L 553.5 453 L 546.54 402.6 Z" fill="none" stroke="#1565c0" stroke-width="3" stroke-miterlimit="10" pointer-events="all"/><path d="M 312 582 L 322.35 567.12 L 327 534 L 331.65 567.12 L 342 582 L 331.65 596.88 L 327 630 L 322.35 596.88 Z" fill="none" stroke="#1565c0" stroke-width="3" stroke-miterlimit="10" pointer-events="all"/><path d="M 288 498 L 299.25 492.75 L 303 477 L 306.75 492.75 L 318 498 L 306.75 503.25 L 303 519 L 299.25 503.25 Z" fill="none" stroke="#1565c0" stroke-width="3" stroke-miterlimit="10" pointer-events="all"/><path d="M 540 879 L 550.2 872.28 L 555 858 L 559.8 872.28 L 570 879 L 559.8 885.72 L 555 900 L 550.2 885.72 Z" fill="none" stroke="#1565c0" stroke-width="3" stroke-miterlimit="10" pointer-events="all"/><path d="M 546 807 L 558.45 803.43 L 561 786 L 563.55 803.43 L 576 807 L 563.55 810.57 L 561 828 L 558.45 810.57 Z" fill="none" stroke="#1565c0" stroke-width="3" stroke-miterlimit="10" pointer-events="all"/><path d="M 345 525 L 357.45 521.94 L 360 507 L 362.55 521.94 L 375 525 L 362.55 528.06 L 360 543 L 357.45 528.06 Z" fill="none" stroke="#1565c0" stroke-width="3" stroke-miterlimit="10" pointer-events="all"/><path d="M 93 396 Q 210 420 240 450 Q 270 480 300 615 Q 330 750 375 630 Q 420 510 450 510 Q 480 510 510 570 Q 540 630 525 750 Q 510 870 540 960 Q 570 1050 585 945 Q 600 840 585 720 Q 570 600 585 555 Q 600 510 645 465 Q 690 420 720 555 Q 750 690 780 525 Q 810 360 855 450 Q 900 540 900 480 Q 900 420 939 385.5 Q 978 351 894 370.5 Q 810 390 720 345 Q 630 300 540 255 Q 450 210 375 270 Q 300 330 240 360 Q 180 390 93 396" fill="none" stroke="#000000" stroke-width="30" stroke-miterlimit="10" pointer-events="stroke" transform="translate(6,9)" opacity="0.25"/><path d="M 93 396 Q 210 420 240 450 Q 270 480 300 615 Q 330 750 375 630 Q 420 510 450 510 Q 480 510 510 570 Q 540 630 525 750 Q 510 870 540 960 Q 570 1050 585 945 Q 600 840 585 720 Q 570 600 585 555 Q 600 510 645 465 Q 690 420 720 555 Q 750 690 780 525 Q 810 360 855 450 Q 900 540 900 480 Q 900 420 939 385.5 Q 978 351 894 370.5 Q 810 390 720 345 Q 630 300 540 255 Q 450 210 375 270 Q 300 330 240 360 Q 180 390 93 396" fill="none" stroke="#1565c0" stroke-width="30" stroke-miterlimit="10" pointer-events="stroke"/><ellipse cx="463.5" cy="331.5" rx="88.5" ry="88.5" fill="#1565c0" stroke="none" pointer-events="all"/><ellipse cx="421.5" cy="336" rx="88.5" ry="88.5" fill="#1565c0" stroke="none" pointer-events="all"/><ellipse cx="538.5" cy="336" rx="88.5" ry="88.5" fill="#1565c0" stroke="none" pointer-events="all"/><ellipse cx="598.5" cy="388.5" rx="88.5" ry="88.5" fill="#1565c0" stroke="none" pointer-events="all"/><ellipse cx="481.5" cy="430.5" rx="88.5" ry="88.5" fill="#1565c0" stroke="none" pointer-events="all"/><ellipse cx="538.5" cy="454.5" rx="88.5" ry="88.5" fill="#1565c0" stroke="none" pointer-events="all"/><ellipse cx="327" cy="394.5" rx="88.5" ry="88.5" fill="#1565c0" stroke="none" pointer-events="all"/><ellipse cx="360" cy="454.5" rx="88.5" ry="88.5" fill="#1565c0" stroke="none" pointer-events="all"/><ellipse cx="344.25" cy="467.25" rx="72.75" ry="72.75" fill="#1565c0" stroke="none" pointer-events="all"/><ellipse cx="315.93" cy="527.43" rx="44.42999999999999" ry="44.42999999999999" fill="#1565c0" stroke="none" pointer-events="all"/><ellipse cx="504" cy="388.5" rx="88.5" ry="88.5" fill="#1565c0" stroke="none" pointer-events="all"/><ellipse cx="345.93" cy="557.43" rx="44.42999999999999" ry="44.42999999999999" fill="#1565c0" stroke="none" pointer-events="all"/><ellipse cx="362.43" cy="540" rx="44.42999999999999" ry="44.42999999999999" fill="#1565c0" stroke="none" pointer-events="all"/><ellipse cx="344.25" cy="587.43" rx="44.42999999999999" ry="44.42999999999999" fill="#1565c0" stroke="none" pointer-events="all"/><ellipse cx="338.07" cy="632.07" rx="29.07" ry="29.07" fill="#1565c0" stroke="none" pointer-events="all"/><ellipse cx="338.07" cy="659.07" rx="29.07" ry="29.07" fill="#1565c0" stroke="none" pointer-events="all"/><ellipse cx="230.79" cy="388.5" rx="29.07" ry="29.07" fill="#1565c0" stroke="none" pointer-events="all"/><ellipse cx="288.93" cy="450.93" rx="29.07" ry="29.07" fill="#1565c0" stroke="none" pointer-events="all"/><ellipse cx="242.07" cy="416.07" rx="29.07" ry="29.07" fill="#1565c0" stroke="none" pointer-events="all"/><ellipse cx="194.07" cy="401.07" rx="29.07" ry="29.07" fill="#1565c0" stroke="none" pointer-events="all"/><ellipse cx="657.93" cy="362.07" rx="29.07" ry="29.07" fill="#1565c0" stroke="none" pointer-events="all"/><ellipse cx="687.93" cy="362.07" rx="29.07" ry="29.07" fill="#1565c0" stroke="none" pointer-events="all"/><ellipse cx="717.93" cy="392.07" rx="29.07" ry="29.07" fill="#1565c0" stroke="none" pointer-events="all"/><ellipse cx="716.07" cy="371.07" rx="29.07" ry="29.07" fill="#1565c0" stroke="none" pointer-events="all"/><ellipse cx="687.93" cy="390.93" rx="29.07" ry="29.07" fill="#1565c0" stroke="none" pointer-events="all"/><ellipse cx="717.93" cy="420.93" rx="29.07" ry="29.07" fill="#1565c0" stroke="none" pointer-events="all"/><ellipse cx="698.07" cy="437.07" rx="29.07" ry="29.07" fill="#1565c0" stroke="none" pointer-events="all"/><ellipse cx="728.07" cy="467.07" rx="29.07" ry="29.07" fill="#1565c0" stroke="none" pointer-events="all"/><ellipse cx="758.07" cy="497.07" rx="29.07" ry="29.07" fill="#1565c0" stroke="none" pointer-events="all"/><ellipse cx="746.07" cy="495.21" rx="29.07" ry="29.07" fill="#1565c0" stroke="none" pointer-events="all"/><ellipse cx="746.07" cy="525.21" rx="29.07" ry="29.07" fill="#1565c0" stroke="none" pointer-events="all"/><ellipse cx="740.07" cy="563.07" rx="29.07" ry="29.07" fill="#1565c0" stroke="none" pointer-events="all"/><ellipse cx="740.07" cy="572.07" rx="29.07" ry="29.07" fill="#1565c0" stroke="none" pointer-events="all"/><ellipse cx="758.07" cy="413.07" rx="29.07" ry="29.07" fill="#1565c0" stroke="none" pointer-events="all"/><ellipse cx="755.07" cy="443.07" rx="29.07" ry="29.07" fill="#1565c0" stroke="none" pointer-events="all"/><ellipse cx="764.07" cy="461.07" rx="29.07" ry="29.07" fill="#1565c0" stroke="none" pointer-events="all"/><ellipse cx="761.07" cy="386.07" rx="29.07" ry="29.07" fill="#1565c0" stroke="none" pointer-events="all"/><ellipse cx="793.5" cy="415.5" rx="34.5" ry="34.5" fill="#1565c0" stroke="none" pointer-events="all"/><ellipse cx="899.07" cy="395.07" rx="29.07" ry="29.07" fill="#1565c0" stroke="none" pointer-events="all"/><ellipse cx="824.07" cy="407.07" rx="29.07" ry="29.07" fill="#1565c0" stroke="none" pointer-events="all"/><ellipse cx="866.07" cy="404.07" rx="29.07" ry="29.07" fill="#1565c0" stroke="none" pointer-events="all"/><ellipse cx="882.21" cy="437.07" rx="29.07" ry="29.07" fill="#1565c0" stroke="none" pointer-events="all"/><ellipse cx="882.21" cy="450.21" rx="29.07" ry="29.07" fill="#1565c0" stroke="none" pointer-events="all"/><ellipse cx="530.07" cy="542.07" rx="29.07" ry="29.07" fill="#1565c0" stroke="none" pointer-events="all"/><ellipse cx="560.07" cy="539.07" rx="29.07" ry="29.07" fill="#1565c0" stroke="none" pointer-events="all"/><ellipse cx="540.93" cy="569.07" rx="29.07" ry="29.07" fill="#1565c0" stroke="none" pointer-events="all"/><ellipse cx="546.93" cy="600.93" rx="29.07" ry="29.07" fill="#1565c0" stroke="none" pointer-events="all"/><ellipse cx="555" cy="645" rx="29.07" ry="29.07" fill="#1565c0" stroke="none" pointer-events="all"/><ellipse cx="555" cy="695.07" rx="29.07" ry="29.07" fill="#1565c0" stroke="none" pointer-events="all"/><ellipse cx="555" cy="747.93" rx="29.07" ry="29.07" fill="#1565c0" stroke="none" pointer-events="all"/><ellipse cx="555" cy="798.93" rx="29.07" ry="29.07" fill="#1565c0" stroke="none" pointer-events="all"/><ellipse cx="553.5" cy="828.93" rx="29.07" ry="29.07" fill="#1565c0" stroke="none" pointer-events="all"/><ellipse cx="555" cy="857.07" rx="29.07" ry="29.07" fill="#1565c0" stroke="none" pointer-events="all"/><ellipse cx="555" cy="887.07" rx="29.07" ry="29.07" fill="#1565c0" stroke="none" pointer-events="all"/><ellipse cx="555" cy="915.21" rx="29.07" ry="29.07" fill="#1565c0" stroke="none" pointer-events="all"/><ellipse cx="560.07" cy="954" rx="29.07" ry="29.07" fill="#1565c0" stroke="none" pointer-events="all"/><ellipse cx="563.43" cy="770.79" rx="29.07" ry="29.07" fill="#1565c0" stroke="none" pointer-events="all"/><ellipse cx="561" cy="717.21" rx="29.07" ry="29.07" fill="#1565c0" stroke="none" pointer-events="all"/><path d="M 510 393 L 546.54 383.4 L 553.5 333 L 560.46 383.4 L 597 393 L 560.46 402.6 L 553.5 453 L 546.54 402.6 Z" fill="#000000" stroke="none" pointer-events="all" transform="translate(6,9)" opacity="0.25"/><path d="M 510 393 L 546.54 383.4 L 553.5 333 L 560.46 383.4 L 597 393 L 560.46 402.6 L 553.5 453 L 546.54 402.6 Z" fill="#ff9933" stroke="none" pointer-events="all"/><path d="M 312 582 L 322.35 567.12 L 327 534 L 331.65 567.12 L 342 582 L 331.65 596.88 L 327 630 L 322.35 596.88 Z" fill="#000000" stroke="none" pointer-events="all" transform="translate(6,9)" opacity="0.25"/><path d="M 312 582 L 322.35 567.12 L 327 534 L 331.65 567.12 L 342 582 L 331.65 596.88 L 327 630 L 322.35 596.88 Z" fill="#ff9933" stroke="none" pointer-events="all"/><path d="M 288 498 L 299.25 492.75 L 303 477 L 306.75 492.75 L 318 498 L 306.75 503.25 L 303 519 L 299.25 503.25 Z" fill="#000000" stroke="none" pointer-events="all" transform="translate(6,9)" opacity="0.25"/><path d="M 288 498 L 299.25 492.75 L 303 477 L 306.75 492.75 L 318 498 L 306.75 503.25 L 303 519 L 299.25 503.25 Z" fill="#ff9933" stroke="none" pointer-events="all"/><path d="M 540 879 L 550.2 872.28 L 555 858 L 559.8 872.28 L 570 879 L 559.8 885.72 L 555 900 L 550.2 885.72 Z" fill="#000000" stroke="none" pointer-events="all" transform="translate(6,9)" opacity="0.25"/><path d="M 540 879 L 550.2 872.28 L 555 858 L 559.8 872.28 L 570 879 L 559.8 885.72 L 555 900 L 550.2 885.72 Z" fill="#ff9933" stroke="none" pointer-events="all"/><path d="M 546 807 L 558.45 803.43 L 561 786 L 563.55 803.43 L 576 807 L 563.55 810.57 L 561 828 L 558.45 810.57 Z" fill="#000000" stroke="none" pointer-events="all" transform="translate(6,9)" opacity="0.25"/><path d="M 546 807 L 558.45 803.43 L 561 786 L 563.55 803.43 L 576 807 L 563.55 810.57 L 561 828 L 558.45 810.57 Z" fill="#ff9933" stroke="none" pointer-events="all"/><path d="M 345 525 L 357.45 521.94 L 360 507 L 362.55 521.94 L 375 525 L 362.55 528.06 L 360 543 L 357.45 528.06 Z" fill="#000000" stroke="none" pointer-events="all" transform="translate(6,9)" opacity="0.25"/><path d="M 345 525 L 357.45 521.94 L 360 507 L 362.55 521.94 L 375 525 L 362.55 528.06 L 360 543 L 357.45 528.06 Z" fill="#ff9933" stroke="none" pointer-events="all"/><path d="M 84 396 Q 135 426 156 475.5 Q 177 525 201 607.5 Q 225 690 276 813 Q 327 936 363 886.5 Q 399 837 412.5 817.5 Q 426 798 438 835.5 Q 450 873 460.5 1045.5 Q 471 1218 519 1255.5 Q 567 1293 633 1228.5 Q 699 1164 709.5 1092 Q 720 1020 709.5 870 Q 699 720 754.5 795 Q 810 870 840 765 Q 870 660 885 660 Q 900 660 909 679.5 Q 918 699 940.5 709.5 Q 963 720 976.5 705 Q 990 690 990 660 Q 990 630 975 570 Q 960 510 963 366" fill="none" stroke="#000000" stroke-width="15" stroke-miterlimit="10" pointer-events="stroke" transform="translate(6,9)" opacity="0.25"/><path d="M 84 396 Q 135 426 156 475.5 Q 177 525 201 607.5 Q 225 690 276 813 Q 327 936 363 886.5 Q 399 837 412.5 817.5 Q 426 798 438 835.5 Q 450 873 460.5 1045.5 Q 471 1218 519 1255.5 Q 567 1293 633 1228.5 Q 699 1164 709.5 1092 Q 720 1020 709.5 870 Q 699 720 754.5 795 Q 810 870 840 765 Q 870 660 885 660 Q 900 660 909 679.5 Q 918 699 940.5 709.5 Q 963 720 976.5 705 Q 990 690 990 660 Q 990 630 975 570 Q 960 510 963 366" fill="none" stroke="#1565c0" stroke-width="15" stroke-miterlimit="10" pointer-events="stroke"/><path d="M 90 396 Q 210 330 240 255 Q 270 180 360 120 Q 450 60 570 120 Q 690 180 750 255 Q 810 330 972 354" fill="none" stroke="#000000" stroke-width="15" stroke-miterlimit="10" pointer-events="stroke" transform="translate(6,9)" opacity="0.25"/><path d="M 90 396 Q 210 330 240 255 Q 270 180 360 120 Q 450 60 570 120 Q 690 180 750 255 Q 810 330 972 354" fill="none" stroke="#1565c0" stroke-width="15" stroke-miterlimit="10" pointer-events="stroke"/><path d="M 78 396 Q 210 360 270 285 Q 330 210 405 165 Q 480 120 555 165 Q 630 210 709.5 285 Q 789 360 960 354" fill="none" stroke="#000000" stroke-width="15" stroke-miterlimit="10" pointer-events="stroke" transform="translate(6,9)" opacity="0.25"/><path d="M 78 396 Q 210 360 270 285 Q 330 210 405 165 Q 480 120 555 165 Q 630 210 709.5 285 Q 789 360 960 354" fill="none" stroke="#1565c0" stroke-width="15" stroke-miterlimit="10" pointer-events="stroke"/><path d="M 78 390 Q -12 300 12 222" fill="none" stroke="none" pointer-events="stroke" transform="translate(6,9)" opacity="0.25"/><path d="M 78 390 Q -12 300 12 222" fill="none" stroke="none" pointer-events="stroke"/><path d="M 78 390 M 78 390 C 27.68 328.96 -2.19 279.14 12 222 M 78 390 C 28.54 321.54 -4.21 272.52 12 222" fill="none" stroke="#000000" stroke-width="15" stroke-linejoin="round" stroke-linecap="round" stroke-miterlimit="10" pointer-events="stroke" transform="translate(6,9)" opacity="0.25"/><path d="M 78 390 M 78 390 C 27.68 328.96 -2.19 279.14 12 222 M 78 390 C 28.54 321.54 -4.21 272.52 12 222" fill="none" stroke="#1565c0" stroke-width="15" stroke-linejoin="round" stroke-linecap="round" stroke-miterlimit="10" pointer-events="stroke"/><path d="M 168 372 Q 75 288 117 174" fill="none" stroke="none" pointer-events="stroke" transform="translate(6,9)" opacity="0.25"/><path d="M 168 372 Q 75 288 117 174" fill="none" stroke="none" pointer-events="stroke"/><path d="M 168 372 M 168 372 C 115.68 317 81.24 248.28 117 174 M 168 372 C 109.39 319.13 83.01 258.45 117 174" fill="none" stroke="#000000" stroke-width="15" stroke-linejoin="round" stroke-linecap="round" stroke-miterlimit="10" pointer-events="stroke" transform="translate(6,9)" opacity="0.25"/><path d="M 168 372 M 168 372 C 115.68 317 81.24 248.28 117 174 M 168 372 C 109.39 319.13 83.01 258.45 117 174" fill="none" stroke="#1565c0" stroke-width="15" stroke-linejoin="round" stroke-linecap="round" stroke-miterlimit="10" pointer-events="stroke"/><path d="M 285 318 Q 192 204 243 114" fill="none" stroke="none" pointer-events="stroke" transform="translate(6,9)" opacity="0.25"/><path d="M 285 318 Q 192 204 243 114" fill="none" stroke="none" pointer-events="stroke"/><path d="M 285 318 M 285 318 C 232.68 245.04 215.67 165.43 243 114 M 285 318 C 219.24 229.13 197.24 164.79 243 114" fill="none" stroke="#000000" stroke-width="15" stroke-linejoin="round" stroke-linecap="round" stroke-miterlimit="10" pointer-events="stroke" transform="translate(6,9)" opacity="0.25"/><path d="M 285 318 M 285 318 C 232.68 245.04 215.67 165.43 243 114 M 285 318 C 219.24 229.13 197.24 164.79 243 114" fill="none" stroke="#1565c0" stroke-width="15" stroke-linejoin="round" stroke-linecap="round" stroke-miterlimit="10" pointer-events="stroke"/><path d="M 390 243 Q 318 102 384 6" fill="none" stroke="none" pointer-events="stroke" transform="translate(6,9)" opacity="0.25"/><path d="M 390 243 Q 318 102 384 6" fill="none" stroke="none" pointer-events="stroke"/><path d="M 390 243 M 390 243 C 351.68 156.12 351.53 71.71 384 6 M 390 243 C 351.54 159.32 344.29 80.66 384 6" fill="none" stroke="#000000" stroke-width="15" stroke-linejoin="round" stroke-linecap="round" stroke-miterlimit="10" pointer-events="stroke" transform="translate(6,9)" opacity="0.25"/><path d="M 390 243 M 390 243 C 351.68 156.12 351.53 71.71 384 6 M 390 243 C 351.54 159.32 344.29 80.66 384 6" fill="none" stroke="#1565c0" stroke-width="15" stroke-linejoin="round" stroke-linecap="round" stroke-miterlimit="10" pointer-events="stroke"/><path d="M 516 237 Q 579 126 525 6" fill="none" stroke="none" pointer-events="stroke" transform="translate(6,9)" opacity="0.25"/><path d="M 516 237 Q 579 126 525 6" fill="none" stroke="none" pointer-events="stroke"/><path d="M 516 237 M 516 237 C 567.68 172.16 562.97 80.86 525 6 M 516 237 C 560.4 157.31 559.52 78.99 525 6" fill="none" stroke="#000000" stroke-width="15" stroke-linejoin="round" stroke-linecap="round" stroke-miterlimit="10" pointer-events="stroke" transform="translate(6,9)" opacity="0.25"/><path d="M 516 237 M 516 237 C 567.68 172.16 562.97 80.86 525 6 M 516 237 C 560.4 157.31 559.52 78.99 525 6" fill="none" stroke="#1565c0" stroke-width="15" stroke-linejoin="round" stroke-linecap="round" stroke-miterlimit="10" pointer-events="stroke"/><path d="M 621 288 Q 741 210 708 105" fill="none" stroke="none" pointer-events="stroke" transform="translate(6,9)" opacity="0.25"/><path d="M 621 288 Q 741 210 708 105" fill="none" stroke="none" pointer-events="stroke"/><path d="M 621 288 M 621 288 C 710.69 242.06 737.47 163.02 708 105 M 621 288 C 711.71 236.97 739.49 165.77 708 105" fill="none" stroke="#000000" stroke-width="15" stroke-linejoin="round" stroke-linecap="round" stroke-miterlimit="10" pointer-events="stroke" transform="translate(6,9)" opacity="0.25"/><path d="M 621 288 M 621 288 C 710.69 242.06 737.47 163.02 708 105 M 621 288 C 711.71 236.97 739.49 165.77 708 105" fill="none" stroke="#1565c0" stroke-width="15" stroke-linejoin="round" stroke-linecap="round" stroke-miterlimit="10" pointer-events="stroke"/><path d="M 750 348 Q 840 255 837 165" fill="none" stroke="none" pointer-events="stroke" transform="translate(6,9)" opacity="0.25"/><path d="M 750 348 Q 840 255 837 165" fill="none" stroke="none" pointer-events="stroke"/><path d="M 750 348 M 750 348 C 819.69 294.1 836.9 230.16 837 165 M 750 348 C 813.56 298.56 842.71 225.7 837 165" fill="none" stroke="#000000" stroke-width="15" stroke-linejoin="round" stroke-linecap="round" stroke-miterlimit="10" pointer-events="stroke" transform="translate(6,9)" opacity="0.25"/><path d="M 750 348 M 750 348 C 819.69 294.1 836.9 230.16 837 165 M 750 348 C 813.56 298.56 842.71 225.7 837 165" fill="none" stroke="#1565c0" stroke-width="15" stroke-linejoin="round" stroke-linecap="round" stroke-miterlimit="10" pointer-events="stroke"/><path d="M 861 369 Q 915 306 903 231" fill="none" stroke="none" pointer-events="stroke" transform="translate(6,9)" opacity="0.25"/><path d="M 861 369 Q 915 306 903 231" fill="none" stroke="none" pointer-events="stroke"/><path d="M 861 369 M 861 369 C 906.69 337.14 899.33 279.3 903 231 M 861 369 C 893.41 323.56 908.94 291.64 903 231" fill="none" stroke="#000000" stroke-width="15" stroke-linejoin="round" stroke-linecap="round" stroke-miterlimit="10" pointer-events="stroke" transform="translate(6,9)" opacity="0.25"/><path d="M 861 369 M 861 369 C 906.69 337.14 899.33 279.3 903 231 M 861 369 C 893.41 323.56 908.94 291.64 903 231" fill="none" stroke="#1565c0" stroke-width="15" stroke-linejoin="round" stroke-linecap="round" stroke-miterlimit="10" pointer-events="stroke"/><path d="M 960 360 Q 1014 297 987 240" fill="none" stroke="none" pointer-events="stroke" transform="translate(6,9)" opacity="0.25"/><path d="M 960 360 Q 1014 297 987 240" fill="none" stroke="none" pointer-events="stroke"/><path d="M 960 360 M 960 360 C 1005.69 306.18 1007.76 269.45 987 240 M 960 360 C 985.27 326.15 997.16 270.97 987 240" fill="none" stroke="#000000" stroke-width="15" stroke-linejoin="round" stroke-linecap="round" stroke-miterlimit="10" pointer-events="stroke" transform="translate(6,9)" opacity="0.25"/><path d="M 960 360 M 960 360 C 1005.69 306.18 1007.76 269.45 987 240 M 960 360 C 985.27 326.15 997.16 270.97 987 240" fill="none" stroke="#1565c0" stroke-width="15" stroke-linejoin="round" stroke-linecap="round" stroke-miterlimit="10" pointer-events="stroke"/><path d="M 450 336 L 470.4 326.4 L 480 306 L 489.6 326.4 L 510 336 L 489.6 345.6 L 480 366 L 470.4 345.6 Z" fill="none" stroke="#1565c0" stroke-width="3" stroke-miterlimit="10" pointer-events="all"/><path d="M 450 336 L 470.4 326.4 L 480 306 L 489.6 326.4 L 510 336 L 489.6 345.6 L 480 366 L 470.4 345.6 Z" fill="#000000" stroke="none" pointer-events="all" transform="translate(6,9)" opacity="0.25"/><path d="M 450 336 L 470.4 326.4 L 480 306 L 489.6 326.4 L 510 336 L 489.6 345.6 L 480 366 L 470.4 345.6 Z" fill="#ff9933" stroke="none" pointer-events="all"/><path d="M 90 390 Q 254.43 385.14 344.43 280.14 Q 434.43 175.14 622.21 297.57 Q 810 420 980.43 346.14" fill="none" stroke="#000000" stroke-width="30" stroke-miterlimit="10" pointer-events="stroke" transform="translate(6,9)" opacity="0.25"/><path d="M 90 390 Q 254.43 385.14 344.43 280.14 Q 434.43 175.14 622.21 297.57 Q 810 420 980.43 346.14" fill="none" stroke="#1565c0" stroke-width="30" stroke-miterlimit="10" pointer-events="stroke"/></g></svg>