<?xml version="1.0" encoding="UTF-8"?>
<!DOCTYPE svg PUBLIC "-//W3C//DTD SVG 1.1//EN" "http://www.w3.org/Graphics/SVG/1.1/DTD/svg11.dtd">
<svg xmlns="http://www.w3.org/2000/svg" xmlns:xlink="http://www.w3.org/1999/xlink" version="1.1" width="1690px" height="2146px" viewBox="-0.5 -0.5 1690 2146"><defs><style type="text/css">@import url(https://fonts.googleapis.com/css?family=Architects+Daughter);&#xa;</style></defs><g><path d="M 115 655 Q 300 700 375 852.5 Q 450 1005 500 1230 Q 550 1455 625 1255 Q 700 1055 750 1055 Q 800 1055 800 1155 Q 800 1255 800 1502.5 Q 800 1750 875 1852.5 Q 950 1955 1000 1877.5 Q 1050 1800 1075 1675 Q 1100 1550 1075 1350 Q 1050 1150 1050 1077.5 Q 1050 1005 1075 927.5 Q 1100 850 1150 975 Q 1200 1100 1250 1125 Q 1300 1150 1325 1100 Q 1350 1050 1362.5 915 Q 1375 780 1412.5 840 Q 1450 900 1500 925 Q 1550 950 1550 825 Q 1550 700 1600 600" fill="none" stroke="#000000" stroke-width="25" stroke-miterlimit="10" pointer-events="stroke" transform="translate(10,15)" opacity="0.25"/><path d="M 115 655 Q 300 700 375 852.5 Q 450 1005 500 1230 Q 550 1455 625 1255 Q 700 1055 750 1055 Q 800 1055 800 1155 Q 800 1255 800 1502.5 Q 800 1750 875 1852.5 Q 950 1955 1000 1877.5 Q 1050 1800 1075 1675 Q 1100 1550 1075 1350 Q 1050 1150 1050 1077.5 Q 1050 1005 1075 927.5 Q 1100 850 1150 975 Q 1200 1100 1250 1125 Q 1300 1150 1325 1100 Q 1350 1050 1362.5 915 Q 1375 780 1412.5 840 Q 1450 900 1500 925 Q 1550 950 1550 825 Q 1550 700 1600 600" fill="none" stroke="#1565c0" stroke-width="25" stroke-miterlimit="10" pointer-events="stroke"/><path d="M 850 655 L 910.9 639 L 922.5 555 L 934.1 639 L 995 655 L 934.1 671 L 922.5 755 L 910.9 671 Z" fill="none" stroke="#1565c0" stroke-width="5" stroke-miterlimit="10" pointer-events="all"/><path d="M 520 970 L 537.25 945.2 L 545 890 L 552.75 945.2 L 570 970 L 552.75 994.8 L 545 1050 L 537.25 994.8 Z" fill="none" stroke="#1565c0" stroke-width="5" stroke-miterlimit="10" pointer-events="all"/><path d="M 480 830 L 498.75 821.25 L 505 795 L 511.25 821.25 L 530 830 L 511.25 838.75 L 505 865 L 498.75 838.75 Z" fill="none" stroke="#1565c0" stroke-width="5" stroke-miterlimit="10" pointer-events="all"/><path d="M 900 1465 L 917 1453.8 L 925 1430 L 933 1453.8 L 950 1465 L 933 1476.2 L 925 1500 L 917 1476.2 Z" fill="none" stroke="#1565c0" stroke-width="5" stroke-miterlimit="10" pointer-events="all"/><path d="M 910 1345 L 930.75 1339.05 L 935 1310 L 939.25 1339.05 L 960 1345 L 939.25 1350.95 L 935 1380 L 930.75 1350.95 Z" fill="none" stroke="#1565c0" stroke-width="5" stroke-miterlimit="10" pointer-events="all"/><path d="M 575 875 L 595.75 869.9 L 600 845 L 604.25 869.9 L 625 875 L 604.25 880.1 L 600 905 L 595.75 880.1 Z" fill="none" stroke="#1565c0" stroke-width="5" stroke-miterlimit="10" pointer-events="all"/><path d="M 155 660 Q 350 700 400 750 Q 450 800 500 1025 Q 550 1250 625 1050 Q 700 850 750 850 Q 800 850 850 950 Q 900 1050 875 1250 Q 850 1450 900 1600 Q 950 1750 975 1575 Q 1000 1400 975 1200 Q 950 1000 975 925 Q 1000 850 1075 775 Q 1150 700 1200 925 Q 1250 1150 1300 875 Q 1350 600 1425 750 Q 1500 900 1500 800 Q 1500 700 1565 642.5 Q 1630 585 1490 617.5 Q 1350 650 1200 575 Q 1050 500 900 425 Q 750 350 625 450 Q 500 550 400 600 Q 300 650 155 660" fill="none" stroke="#000000" stroke-width="50" stroke-miterlimit="10" pointer-events="stroke" transform="translate(10,15)" opacity="0.25"/><path d="M 155 660 Q 350 700 400 750 Q 450 800 500 1025 Q 550 1250 625 1050 Q 700 850 750 850 Q 800 850 850 950 Q 900 1050 875 1250 Q 850 1450 900 1600 Q 950 1750 975 1575 Q 1000 1400 975 1200 Q 950 1000 975 925 Q 1000 850 1075 775 Q 1150 700 1200 925 Q 1250 1150 1300 875 Q 1350 600 1425 750 Q 1500 900 1500 800 Q 1500 700 1565 642.5 Q 1630 585 1490 617.5 Q 1350 650 1200 575 Q 1050 500 900 425 Q 750 350 625 450 Q 500 550 400 600 Q 300 650 155 660" fill="none" stroke="#1565c0" stroke-width="50" stroke-miterlimit="10" pointer-events="stroke"/><ellipse cx="772.5" cy="552.5" rx="147.5" ry="147.5" fill="#1565c0" stroke="none" pointer-events="all"/><ellipse cx="702.5" cy="560" rx="147.5" ry="147.5" fill="#1565c0" stroke="none" pointer-events="all"/><ellipse cx="897.5" cy="560" rx="147.5" ry="147.5" fill="#1565c0" stroke="none" pointer-events="all"/><ellipse cx="997.5" cy="647.5" rx="147.5" ry="147.5" fill="#1565c0" stroke="none" pointer-events="all"/><ellipse cx="802.5" cy="717.5" rx="147.5" ry="147.5" fill="#1565c0" stroke="none" pointer-events="all"/><ellipse cx="897.5" cy="757.5" rx="147.5" ry="147.5" fill="#1565c0" stroke="none" pointer-events="all"/><ellipse cx="545" cy="657.5" rx="147.5" ry="147.5" fill="#1565c0" stroke="none" pointer-events="all"/><ellipse cx="600" cy="757.5" rx="147.5" ry="147.5" fill="#1565c0" stroke="none" pointer-events="all"/><ellipse cx="573.75" cy="778.75" rx="121.25" ry="121.25" fill="#1565c0" stroke="none" pointer-events="all"/><ellipse cx="526.55" cy="879.05" rx="74.05" ry="74.05" fill="#1565c0" stroke="none" pointer-events="all"/><ellipse cx="840" cy="647.5" rx="147.5" ry="147.5" fill="#1565c0" stroke="none" pointer-events="all"/><ellipse cx="576.55" cy="929.05" rx="74.05" ry="74.05" fill="#1565c0" stroke="none" pointer-events="all"/><ellipse cx="604.05" cy="900" rx="74.05" ry="74.05" fill="#1565c0" stroke="none" pointer-events="all"/><ellipse cx="573.75" cy="979.05" rx="74.05" ry="74.05" fill="#1565c0" stroke="none" pointer-events="all"/><ellipse cx="563.45" cy="1053.45" rx="48.449999999999996" ry="48.449999999999996" fill="#1565c0" stroke="none" pointer-events="all"/><ellipse cx="563.45" cy="1098.45" rx="48.449999999999996" ry="48.449999999999996" fill="#1565c0" stroke="none" pointer-events="all"/><ellipse cx="384.65" cy="647.5" rx="48.449999999999996" ry="48.449999999999996" fill="#1565c0" stroke="none" pointer-events="all"/><ellipse cx="481.55" cy="751.55" rx="48.449999999999996" ry="48.449999999999996" fill="#1565c0" stroke="none" pointer-events="all"/><ellipse cx="403.45" cy="693.45" rx="48.449999999999996" ry="48.449999999999996" fill="#1565c0" stroke="none" pointer-events="all"/><ellipse cx="323.45" cy="668.45" rx="48.449999999999996" ry="48.449999999999996" fill="#1565c0" stroke="none" pointer-events="all"/><ellipse cx="1096.55" cy="603.45" rx="48.449999999999996" ry="48.449999999999996" fill="#1565c0" stroke="none" pointer-events="all"/><ellipse cx="1146.55" cy="603.45" rx="48.449999999999996" ry="48.449999999999996" fill="#1565c0" stroke="none" pointer-events="all"/><ellipse cx="1196.55" cy="653.45" rx="48.449999999999996" ry="48.449999999999996" fill="#1565c0" stroke="none" pointer-events="all"/><ellipse cx="1193.45" cy="618.45" rx="48.449999999999996" ry="48.449999999999996" fill="#1565c0" stroke="none" pointer-events="all"/><ellipse cx="1146.55" cy="651.55" rx="48.449999999999996" ry="48.449999999999996" fill="#1565c0" stroke="none" pointer-events="all"/><ellipse cx="1196.55" cy="701.55" rx="48.449999999999996" ry="48.449999999999996" fill="#1565c0" stroke="none" pointer-events="all"/><ellipse cx="1163.45" cy="728.45" rx="48.449999999999996" ry="48.449999999999996" fill="#1565c0" stroke="none" pointer-events="all"/><ellipse cx="1213.45" cy="778.45" rx="48.449999999999996" ry="48.449999999999996" fill="#1565c0" stroke="none" pointer-events="all"/><ellipse cx="1263.45" cy="828.45" rx="48.449999999999996" ry="48.449999999999996" fill="#1565c0" stroke="none" pointer-events="all"/><ellipse cx="1243.45" cy="825.35" rx="48.449999999999996" ry="48.449999999999996" fill="#1565c0" stroke="none" pointer-events="all"/><ellipse cx="1243.45" cy="875.35" rx="48.449999999999996" ry="48.449999999999996" fill="#1565c0" stroke="none" pointer-events="all"/><ellipse cx="1233.45" cy="938.45" rx="48.449999999999996" ry="48.449999999999996" fill="#1565c0" stroke="none" pointer-events="all"/><ellipse cx="1233.45" cy="953.45" rx="48.449999999999996" ry="48.449999999999996" fill="#1565c0" stroke="none" pointer-events="all"/><ellipse cx="1263.45" cy="688.45" rx="48.449999999999996" ry="48.449999999999996" fill="#1565c0" stroke="none" pointer-events="all"/><ellipse cx="1258.45" cy="738.45" rx="48.449999999999996" ry="48.449999999999996" fill="#1565c0" stroke="none" pointer-events="all"/><ellipse cx="1273.45" cy="768.45" rx="48.449999999999996" ry="48.449999999999996" fill="#1565c0" stroke="none" pointer-events="all"/><ellipse cx="1268.45" cy="643.45" rx="48.449999999999996" ry="48.449999999999996" fill="#1565c0" stroke="none" pointer-events="all"/><ellipse cx="1322.5" cy="692.5" rx="57.5" ry="57.5" fill="#1565c0" stroke="none" pointer-events="all"/><ellipse cx="1498.45" cy="658.45" rx="48.449999999999996" ry="48.449999999999996" fill="#1565c0" stroke="none" pointer-events="all"/><ellipse cx="1373.45" cy="678.45" rx="48.449999999999996" ry="48.449999999999996" fill="#1565c0" stroke="none" pointer-events="all"/><ellipse cx="1443.45" cy="673.45" rx="48.449999999999996" ry="48.449999999999996" fill="#1565c0" stroke="none" pointer-events="all"/><ellipse cx="1470.35" cy="728.45" rx="48.449999999999996" ry="48.449999999999996" fill="#1565c0" stroke="none" pointer-events="all"/><ellipse cx="1470.35" cy="750.35" rx="48.449999999999996" ry="48.449999999999996" fill="#1565c0" stroke="none" pointer-events="all"/><ellipse cx="883.45" cy="903.45" rx="48.449999999999996" ry="48.449999999999996" fill="#1565c0" stroke="none" pointer-events="all"/><ellipse cx="933.45" cy="898.45" rx="48.449999999999996" ry="48.449999999999996" fill="#1565c0" stroke="none" pointer-events="all"/><ellipse cx="901.55" cy="948.45" rx="48.449999999999996" ry="48.449999999999996" fill="#1565c0" stroke="none" pointer-events="all"/><ellipse cx="911.55" cy="1001.55" rx="48.449999999999996" ry="48.449999999999996" fill="#1565c0" stroke="none" pointer-events="all"/><ellipse cx="925" cy="1075" rx="48.449999999999996" ry="48.449999999999996" fill="#1565c0" stroke="none" pointer-events="all"/><ellipse cx="925" cy="1158.45" rx="48.449999999999996" ry="48.449999999999996" fill="#1565c0" stroke="none" pointer-events="all"/><ellipse cx="925" cy="1246.55" rx="48.449999999999996" ry="48.449999999999996" fill="#1565c0" stroke="none" pointer-events="all"/><ellipse cx="925" cy="1331.55" rx="48.449999999999996" ry="48.449999999999996" fill="#1565c0" stroke="none" pointer-events="all"/><ellipse cx="922.5" cy="1381.55" rx="48.449999999999996" ry="48.449999999999996" fill="#1565c0" stroke="none" pointer-events="all"/><ellipse cx="925" cy="1428.45" rx="48.449999999999996" ry="48.449999999999996" fill="#1565c0" stroke="none" pointer-events="all"/><ellipse cx="925" cy="1478.45" rx="48.449999999999996" ry="48.449999999999996" fill="#1565c0" stroke="none" pointer-events="all"/><ellipse cx="925" cy="1525.35" rx="48.449999999999996" ry="48.449999999999996" fill="#1565c0" stroke="none" pointer-events="all"/><ellipse cx="933.45" cy="1590" rx="48.449999999999996" ry="48.449999999999996" fill="#1565c0" stroke="none" pointer-events="all"/><ellipse cx="939.05" cy="1284.65" rx="48.449999999999996" ry="48.449999999999996" fill="#1565c0" stroke="none" pointer-events="all"/><ellipse cx="935" cy="1195.35" rx="48.449999999999996" ry="48.449999999999996" fill="#1565c0" stroke="none" pointer-events="all"/><path d="M 850 655 L 910.9 639 L 922.5 555 L 934.1 639 L 995 655 L 934.1 671 L 922.5 755 L 910.9 671 Z" fill="#000000" stroke="none" pointer-events="all" transform="translate(10,15)" opacity="0.25"/><path d="M 850 655 L 910.9 639 L 922.5 555 L 934.1 639 L 995 655 L 934.1 671 L 922.5 755 L 910.9 671 Z" fill="#ff9933" stroke="none" pointer-events="all"/><path d="M 520 970 L 537.25 945.2 L 545 890 L 552.75 945.2 L 570 970 L 552.75 994.8 L 545 1050 L 537.25 994.8 Z" fill="#000000" stroke="none" pointer-events="all" transform="translate(10,15)" opacity="0.25"/><path d="M 520 970 L 537.25 945.2 L 545 890 L 552.75 945.2 L 570 970 L 552.75 994.8 L 545 1050 L 537.25 994.8 Z" fill="#ff9933" stroke="none" pointer-events="all"/><path d="M 480 830 L 498.75 821.25 L 505 795 L 511.25 821.25 L 530 830 L 511.25 838.75 L 505 865 L 498.75 838.75 Z" fill="#000000" stroke="none" pointer-events="all" transform="translate(10,15)" opacity="0.25"/><path d="M 480 830 L 498.75 821.25 L 505 795 L 511.25 821.25 L 530 830 L 511.25 838.75 L 505 865 L 498.75 838.75 Z" fill="#ff9933" stroke="none" pointer-events="all"/><path d="M 900 1465 L 917 1453.8 L 925 1430 L 933 1453.8 L 950 1465 L 933 1476.2 L 925 1500 L 917 1476.2 Z" fill="#000000" stroke="none" pointer-events="all" transform="translate(10,15)" opacity="0.25"/><path d="M 900 1465 L 917 1453.8 L 925 1430 L 933 1453.8 L 950 1465 L 933 1476.2 L 925 1500 L 917 1476.2 Z" fill="#ff9933" stroke="none" pointer-events="all"/><path d="M 910 1345 L 930.75 1339.05 L 935 1310 L 939.25 1339.05 L 960 1345 L 939.25 1350.95 L 935 1380 L 930.75 1350.95 Z" fill="#000000" stroke="none" pointer-events="all" transform="translate(10,15)" opacity="0.25"/><path d="M 910 1345 L 930.75 1339.05 L 935 1310 L 939.25 1339.05 L 960 1345 L 939.25 1350.95 L 935 1380 L 930.75 1350.95 Z" fill="#ff9933" stroke="none" pointer-events="all"/><path d="M 575 875 L 595.75 869.9 L 600 845 L 604.25 869.9 L 625 875 L 604.25 880.1 L 600 905 L 595.75 880.1 Z" fill="#000000" stroke="none" pointer-events="all" transform="translate(10,15)" opacity="0.25"/><path d="M 575 875 L 595.75 869.9 L 600 845 L 604.25 869.9 L 625 875 L 604.25 880.1 L 600 905 L 595.75 880.1 Z" fill="#ff9933" stroke="none" pointer-events="all"/><path d="M 140 660 Q 225 710 260 792.5 Q 295 875 335 1012.5 Q 375 1150 460 1355 Q 545 1560 605 1477.5 Q 665 1395 687.5 1362.5 Q 710 1330 730 1392.5 Q 750 1455 767.5 1742.5 Q 785 2030 865 2092.5 Q 945 2155 1055 2047.5 Q 1165 1940 1182.5 1820 Q 1200 1700 1182.5 1450 Q 1165 1200 1257.5 1325 Q 1350 1450 1400 1275 Q 1450 1100 1475 1100 Q 1500 1100 1515 1132.5 Q 1530 1165 1567.5 1182.5 Q 1605 1200 1627.5 1175 Q 1650 1150 1650 1100 Q 1650 1050 1625 950 Q 1600 850 1605 610" fill="none" stroke="#000000" stroke-width="25" stroke-miterlimit="10" pointer-events="stroke" transform="translate(10,15)" opacity="0.25"/><path d="M 140 660 Q 225 710 260 792.5 Q 295 875 335 1012.5 Q 375 1150 460 1355 Q 545 1560 605 1477.5 Q 665 1395 687.5 1362.5 Q 710 1330 730 1392.5 Q 750 1455 767.5 1742.5 Q 785 2030 865 2092.5 Q 945 2155 1055 2047.5 Q 1165 1940 1182.5 1820 Q 1200 1700 1182.5 1450 Q 1165 1200 1257.5 1325 Q 1350 1450 1400 1275 Q 1450 1100 1475 1100 Q 1500 1100 1515 1132.5 Q 1530 1165 1567.5 1182.5 Q 1605 1200 1627.5 1175 Q 1650 1150 1650 1100 Q 1650 1050 1625 950 Q 1600 850 1605 610" fill="none" stroke="#1565c0" stroke-width="25" stroke-miterlimit="10" pointer-events="stroke"/><path d="M 150 660 Q 350 550 400 425 Q 450 300 600 200 Q 750 100 950 200 Q 1150 300 1250 425 Q 1350 550 1620 590" fill="none" stroke="#000000" stroke-width="25" stroke-miterlimit="10" pointer-events="stroke" transform="translate(10,15)" opacity="0.25"/><path d="M 150 660 Q 350 550 400 425 Q 450 300 600 200 Q 750 100 950 200 Q 1150 300 1250 425 Q 1350 550 1620 590" fill="none" stroke="#1565c0" stroke-width="25" stroke-miterlimit="10" pointer-events="stroke"/><path d="M 130 660 Q 350 600 450 475 Q 550 350 675 275 Q 800 200 925 275 Q 1050 350 1182.5 475 Q 1315 600 1600 590" fill="none" stroke="#000000" stroke-width="25" stroke-miterlimit="10" pointer-events="stroke" transform="translate(10,15)" opacity="0.25"/><path d="M 130 660 Q 350 600 450 475 Q 550 350 675 275 Q 800 200 925 275 Q 1050 350 1182.5 475 Q 1315 600 1600 590" fill="none" stroke="#1565c0" stroke-width="25" stroke-miterlimit="10" pointer-events="stroke"/><path d="M 130 650 Q -20 500 20 370" fill="none" stroke="none" pointer-events="stroke" transform="translate(10,15)" opacity="0.25"/><path d="M 130 650 Q -20 500 20 370" fill="none" stroke="none" pointer-events="stroke"/><path d="M 130 650 M 130 650 C 46.13 548.26 -3.66 465.23 20 370 M 130 650 C 47.57 535.9 -7.02 454.2 20 370" fill="none" stroke="#000000" stroke-width="25" stroke-linejoin="round" stroke-linecap="round" stroke-miterlimit="10" pointer-events="stroke" transform="translate(10,15)" opacity="0.25"/><path d="M 130 650 M 130 650 C 46.13 548.26 -3.66 465.23 20 370 M 130 650 C 47.57 535.9 -7.02 454.2 20 370" fill="none" stroke="#1565c0" stroke-width="25" stroke-linejoin="round" stroke-linecap="round" stroke-miterlimit="10" pointer-events="stroke"/><path d="M 280 620 Q 125 480 195 290" fill="none" stroke="none" pointer-events="stroke" transform="translate(10,15)" opacity="0.25"/><path d="M 280 620 Q 125 480 195 290" fill="none" stroke="none" pointer-events="stroke"/><path d="M 280 620 M 280 620 C 192.79 528.33 135.4 413.81 195 290 M 280 620 C 182.32 531.89 138.36 430.75 195 290" fill="none" stroke="#000000" stroke-width="25" stroke-linejoin="round" stroke-linecap="round" stroke-miterlimit="10" pointer-events="stroke" transform="translate(10,15)" opacity="0.25"/><path d="M 280 620 M 280 620 C 192.79 528.33 135.4 413.81 195 290 M 280 620 C 182.32 531.89 138.36 430.75 195 290" fill="none" stroke="#1565c0" stroke-width="25" stroke-linejoin="round" stroke-linecap="round" stroke-miterlimit="10" pointer-events="stroke"/><path d="M 475 530 Q 320 340 405 190" fill="none" stroke="none" pointer-events="stroke" transform="translate(10,15)" opacity="0.25"/><path d="M 475 530 Q 320 340 405 190" fill="none" stroke="none" pointer-events="stroke"/><path d="M 475 530 M 475 530 C 387.79 408.4 359.45 275.71 405 190 M 475 530 C 365.41 381.88 328.73 274.65 405 190" fill="none" stroke="#000000" stroke-width="25" stroke-linejoin="round" stroke-linecap="round" stroke-miterlimit="10" pointer-events="stroke" transform="translate(10,15)" opacity="0.25"/><path d="M 475 530 M 475 530 C 387.79 408.4 359.45 275.71 405 190 M 475 530 C 365.41 381.88 328.73 274.65 405 190" fill="none" stroke="#1565c0" stroke-width="25" stroke-linejoin="round" stroke-linecap="round" stroke-miterlimit="10" pointer-events="stroke"/><path d="M 650 405 Q 530 170 640 10" fill="none" stroke="none" pointer-events="stroke" transform="translate(10,15)" opacity="0.25"/><path d="M 650 405 Q 530 170 640 10" fill="none" stroke="none" pointer-events="stroke"/><path d="M 650 405 M 650 405 C 586.13 260.2 585.89 119.52 640 10 M 650 405 C 585.91 265.53 573.82 134.43 640 10" fill="none" stroke="#000000" stroke-width="25" stroke-linejoin="round" stroke-linecap="round" stroke-miterlimit="10" pointer-events="stroke" transform="translate(10,15)" opacity="0.25"/><path d="M 650 405 M 650 405 C 586.13 260.2 585.89 119.52 640 10 M 650 405 C 585.91 265.53 573.82 134.43 640 10" fill="none" stroke="#1565c0" stroke-width="25" stroke-linejoin="round" stroke-linecap="round" stroke-miterlimit="10" pointer-events="stroke"/><path d="M 860 395 Q 965 210 875 10" fill="none" stroke="none" pointer-events="stroke" transform="translate(10,15)" opacity="0.25"/><path d="M 860 395 Q 965 210 875 10" fill="none" stroke="none" pointer-events="stroke"/><path d="M 860 395 M 860 395 C 946.13 286.94 938.28 134.76 875 10 M 860 395 C 933.99 262.18 932.53 131.66 875 10" fill="none" stroke="#000000" stroke-width="25" stroke-linejoin="round" stroke-linecap="round" stroke-miterlimit="10" pointer-events="stroke" transform="translate(10,15)" opacity="0.25"/><path d="M 860 395 M 860 395 C 946.13 286.94 938.28 134.76 875 10 M 860 395 C 933.99 262.18 932.53 131.66 875 10" fill="none" stroke="#1565c0" stroke-width="25" stroke-linejoin="round" stroke-linecap="round" stroke-miterlimit="10" pointer-events="stroke"/><path d="M 1035 480 Q 1235 350 1180 175" fill="none" stroke="none" pointer-events="stroke" transform="translate(10,15)" opacity="0.25"/><path d="M 1035 480 Q 1235 350 1180 175" fill="none" stroke="none" pointer-events="stroke"/><path d="M 1035 480 M 1035 480 C 1184.48 403.43 1229.11 271.69 1180 175 M 1035 480 C 1186.19 394.95 1232.48 276.28 1180 175" fill="none" stroke="#000000" stroke-width="25" stroke-linejoin="round" stroke-linecap="round" stroke-miterlimit="10" pointer-events="stroke" transform="translate(10,15)" opacity="0.25"/><path d="M 1035 480 M 1035 480 C 1184.48 403.43 1229.11 271.69 1180 175 M 1035 480 C 1186.19 394.95 1232.48 276.28 1180 175" fill="none" stroke="#1565c0" stroke-width="25" stroke-linejoin="round" stroke-linecap="round" stroke-miterlimit="10" pointer-events="stroke"/><path d="M 1250 580 Q 1400 425 1395 275" fill="none" stroke="none" pointer-events="stroke" transform="translate(10,15)" opacity="0.25"/><path d="M 1250 580 Q 1400 425 1395 275" fill="none" stroke="none" pointer-events="stroke"/><path d="M 1250 580 M 1250 580 C 1366.15 490.17 1394.83 383.6 1395 275 M 1250 580 C 1355.94 497.61 1404.52 376.17 1395 275" fill="none" stroke="#000000" stroke-width="25" stroke-linejoin="round" stroke-linecap="round" stroke-miterlimit="10" pointer-events="stroke" transform="translate(10,15)" opacity="0.25"/><path d="M 1250 580 M 1250 580 C 1366.15 490.17 1394.83 383.6 1395 275 M 1250 580 C 1355.94 497.61 1404.52 376.17 1395 275" fill="none" stroke="#1565c0" stroke-width="25" stroke-linejoin="round" stroke-linecap="round" stroke-miterlimit="10" pointer-events="stroke"/><path d="M 1435 615 Q 1525 510 1505 385" fill="none" stroke="none" pointer-events="stroke" transform="translate(10,15)" opacity="0.25"/><path d="M 1435 615 Q 1525 510 1505 385" fill="none" stroke="none" pointer-events="stroke"/><path d="M 1435 615 M 1435 615 C 1511.15 561.9 1498.88 465.51 1505 385 M 1435 615 C 1489.02 539.26 1514.9 486.06 1505 385" fill="none" stroke="#000000" stroke-width="25" stroke-linejoin="round" stroke-linecap="round" stroke-miterlimit="10" pointer-events="stroke" transform="translate(10,15)" opacity="0.25"/><path d="M 1435 615 M 1435 615 C 1511.15 561.9 1498.88 465.51 1505 385 M 1435 615 C 1489.02 539.26 1514.9 486.06 1505 385" fill="none" stroke="#1565c0" stroke-width="25" stroke-linejoin="round" stroke-linecap="round" stroke-miterlimit="10" pointer-events="stroke"/><path d="M 1600 600 Q 1690 495 1645 400" fill="none" stroke="none" pointer-events="stroke" transform="translate(10,15)" opacity="0.25"/><path d="M 1600 600 Q 1690 495 1645 400" fill="none" stroke="none" pointer-events="stroke"/><path d="M 1600 600 M 1600 600 C 1676.15 510.3 1679.6 449.08 1645 400 M 1600 600 C 1642.11 543.59 1661.94 451.62 1645 400" fill="none" stroke="#000000" stroke-width="25" stroke-linejoin="round" stroke-linecap="round" stroke-miterlimit="10" pointer-events="stroke" transform="translate(10,15)" opacity="0.25"/><path d="M 1600 600 M 1600 600 C 1676.15 510.3 1679.6 449.08 1645 400 M 1600 600 C 1642.11 543.59 1661.94 451.62 1645 400" fill="none" stroke="#1565c0" stroke-width="25" stroke-linejoin="round" stroke-linecap="round" stroke-miterlimit="10" pointer-events="stroke"/><path d="M 750 560 L 784 544 L 800 510 L 816 544 L 850 560 L 816 576 L 800 610 L 784 576 Z" fill="none" stroke="#1565c0" stroke-width="5" stroke-miterlimit="10" pointer-events="all"/><path d="M 750 560 L 784 544 L 800 510 L 816 544 L 850 560 L 816 576 L 800 610 L 784 576 Z" fill="#000000" stroke="none" pointer-events="all" transform="translate(10,15)" opacity="0.25"/><path d="M 750 560 L 784 544 L 800 510 L 816 544 L 850 560 L 816 576 L 800 610 L 784 576 Z" fill="#ff9933" stroke="none" pointer-events="all"/><path d="M 150 650 Q 424.05 641.9 574.05 466.9 Q 724.05 291.9 1037.02 495.95 Q 1350 700 1634.05 576.9" fill="none" stroke="#000000" stroke-width="50" stroke-miterlimit="10" pointer-events="stroke" transform="translate(10,15)" opacity="0.25"/><path d="M 150 650 Q 424.05 641.9 574.05 466.9 Q 724.05 291.9 1037.02 495.95 Q 1350 700 1634.05 576.9" fill="none" stroke="#1565c0" stroke-width="50" stroke-miterlimit="10" pointer-events="stroke"/></g></svg>