<?xml version="1.0" encoding="UTF-8"?>
<!-- Do not edit this file with editors other than draw.io -->
<!DOCTYPE svg PUBLIC "-//W3C//DTD SVG 1.1//EN" "http://www.w3.org/Graphics/SVG/1.1/DTD/svg11.dtd">
<svg xmlns="http://www.w3.org/2000/svg" xmlns:xlink="http://www.w3.org/1999/xlink" version="1.1" width="243" height="372" viewBox="-0.5 -0.5 243 372" content="&lt;mxfile host=&quot;app.diagrams.net&quot; modified=&quot;2024-03-16T18:29:15.641Z&quot; agent=&quot;Mozilla/5.0 (Macintosh; Intel Mac OS X 10_15_7) AppleWebKit/537.36 (KHTML, like Gecko) Chrome/122.0.0.0 Safari/537.36&quot; version=&quot;24.0.7&quot; etag=&quot;elgZqvsJhftZHc0wIXdz&quot; type=&quot;google&quot; scale=&quot;3&quot; border=&quot;0&quot;&gt;&#10;  &lt;diagram name=&quot;Page-1&quot; id=&quot;XJM89SCytLktqIdvbUEk&quot;&gt;&#10;    &lt;mxGraphModel dx=&quot;954&quot; dy=&quot;557&quot; grid=&quot;1&quot; gridSize=&quot;10&quot; guides=&quot;1&quot; tooltips=&quot;1&quot; connect=&quot;1&quot; arrows=&quot;1&quot; fold=&quot;1&quot; page=&quot;1&quot; pageScale=&quot;1&quot; pageWidth=&quot;827&quot; pageHeight=&quot;1169&quot; math=&quot;0&quot; shadow=&quot;0&quot;&gt;&#10;      &lt;root&gt;&#10;        &lt;mxCell id=&quot;0&quot; /&gt;&#10;        &lt;mxCell id=&quot;1&quot; parent=&quot;0&quot; /&gt;&#10;        &lt;mxCell id=&quot;2&quot; value=&quot;&quot; style=&quot;outlineConnect=0;fontColor=#232F3E;gradientColor=none;fillColor=#00a8e8;strokeColor=#00A8E8;dashed=0;verticalLabelPosition=bottom;verticalAlign=top;align=center;html=1;fontSize=12;fontStyle=0;aspect=fixed;pointerEvents=1;shape=mxgraph.aws4.question;shadow=1;fillStyle=auto;sketch=1;curveFitting=1;jiggle=2;sketchStyle=comic;&quot; vertex=&quot;1&quot; parent=&quot;1&quot;&gt;&#10;          &lt;mxGeometry x=&quot;510&quot; y=&quot;699.02&quot; width=&quot;31&quot; height=&quot;58.98&quot; as=&quot;geometry&quot; /&gt;&#10;        &lt;/mxCell&gt;&#10;        &lt;mxCell id=&quot;3&quot; value=&quot;&quot; style=&quot;outlineConnect=0;fontColor=#232F3E;gradientColor=none;fillColor=#00a8e8;strokeColor=#00A8E8;dashed=0;verticalLabelPosition=bottom;verticalAlign=top;align=center;html=1;fontSize=12;fontStyle=0;aspect=fixed;pointerEvents=1;shape=mxgraph.aws4.question;shadow=1;fillStyle=auto;sketch=1;curveFitting=1;jiggle=2;sketchStyle=comic;&quot; vertex=&quot;1&quot; parent=&quot;1&quot;&gt;&#10;          &lt;mxGeometry x=&quot;541&quot; y=&quot;730&quot; width=&quot;20.49&quot; height=&quot;38.98&quot; as=&quot;geometry&quot; /&gt;&#10;        &lt;/mxCell&gt;&#10;        &lt;mxCell id=&quot;4&quot; value=&quot;&quot; style=&quot;outlineConnect=0;fontColor=#232F3E;gradientColor=none;fillColor=#00a8e8;strokeColor=#00A8E8;dashed=0;verticalLabelPosition=bottom;verticalAlign=top;align=center;html=1;fontSize=12;fontStyle=0;aspect=fixed;pointerEvents=1;shape=mxgraph.aws4.question;shadow=1;fillStyle=auto;sketch=1;curveFitting=1;jiggle=2;sketchStyle=comic;&quot; vertex=&quot;1&quot; parent=&quot;1&quot;&gt;&#10;          &lt;mxGeometry x=&quot;510&quot; y=&quot;768.98&quot; width=&quot;11.05&quot; height=&quot;21.02&quot; as=&quot;geometry&quot; /&gt;&#10;        &lt;/mxCell&gt;&#10;        &lt;mxCell id=&quot;5&quot; value=&quot;&quot; style=&quot;outlineConnect=0;fontColor=#232F3E;gradientColor=none;fillColor=#00a8e8;strokeColor=#00A8E8;dashed=0;verticalLabelPosition=bottom;verticalAlign=top;align=center;html=1;fontSize=12;fontStyle=0;aspect=fixed;pointerEvents=1;shape=mxgraph.aws4.question;shadow=1;fillStyle=auto;sketch=1;curveFitting=1;jiggle=2;sketchStyle=comic;&quot; vertex=&quot;1&quot; parent=&quot;1&quot;&gt;&#10;          &lt;mxGeometry x=&quot;530&quot; y=&quot;768.98&quot; width=&quot;21&quot; height=&quot;39.95&quot; as=&quot;geometry&quot; /&gt;&#10;        &lt;/mxCell&gt;&#10;        &lt;mxCell id=&quot;6&quot; value=&quot;&quot; style=&quot;outlineConnect=0;fontColor=#232F3E;gradientColor=none;fillColor=#00a8e8;strokeColor=#00A8E8;dashed=0;verticalLabelPosition=bottom;verticalAlign=top;align=center;html=1;fontSize=12;fontStyle=0;aspect=fixed;pointerEvents=1;shape=mxgraph.aws4.question;shadow=1;fillStyle=auto;sketch=1;curveFitting=1;jiggle=2;sketchStyle=comic;&quot; vertex=&quot;1&quot; parent=&quot;1&quot;&gt;&#10;          &lt;mxGeometry x=&quot;493.69&quot; y=&quot;737.96&quot; width=&quot;16.31&quot; height=&quot;31.02&quot; as=&quot;geometry&quot; /&gt;&#10;        &lt;/mxCell&gt;&#10;      &lt;/root&gt;&#10;    &lt;/mxGraphModel&gt;&#10;  &lt;/diagram&gt;&#10;&lt;/mxfile&gt;&#10;"><defs><filter id="dropShadow"><feGaussianBlur in="SourceAlpha" stdDeviation="1.7" result="blur"/><feOffset in="blur" dx="3" dy="3" result="offsetBlur"/><feFlood flood-color="#3D4574" flood-opacity="0.4" result="offsetColor"/><feComposite in="offsetColor" in2="offsetBlur" operator="in" result="offsetBlur"/><feBlend in="SourceGraphic" in2="offsetBlur"/></filter></defs><g filter="url(#dropShadow)"><g style="filter: drop-shadow(rgba(0, 0, 0, 0.25) 6px 9px 6px);"><rect x="60" y="12.06" width="93" height="176.94" fill="none" stroke="none" pointer-events="all"/><path d="M 106.75 177.67 C 104.71 179.77 102.05 180.79 98.62 180.79 C 95.19 180.79 92.52 179.77 90.48 177.67 C 88.41 175.54 87.4 172.82 87.4 169.34 C 87.4 165.87 88.41 163.14 90.48 161.02 C 92.52 158.92 95.19 157.89 98.62 157.89 C 102.05 157.89 104.7 158.92 106.75 161.02 C 108.82 163.15 109.83 165.87 109.83 169.34 C 109.83 172.81 108.82 175.54 106.75 177.67 M 98.62 149.89 C 92.99 149.89 88.33 151.75 84.75 155.43 C 81.2 159.08 79.4 163.76 79.4 169.34 C 79.4 174.92 81.2 179.6 84.75 183.26 C 88.33 186.93 92.99 188.79 98.62 188.79 C 104.24 188.79 108.91 186.93 112.49 183.25 C 116.03 179.6 117.83 174.92 117.83 169.34 C 117.83 163.76 116.03 159.08 112.49 155.43 C 108.91 151.76 104.24 149.89 98.62 149.89 M 136.04 79.46 C 129.87 86.76 119.88 93.57 106.36 99.7 C 104.93 100.35 104.01 101.77 104.01 103.34 L 104.92 103.34 L 103.53 108.44 L 104.81 113.54 L 104.16 118.64 L 103.3 123.74 L 104.01 128.84 L 104.01 128.12 L 101.75 128.95 L 99.49 128.6 L 97.23 129.82 L 94.97 128.68 L 92.7 128.84 L 92.21 128.81 L 91.71 122.54 L 91.02 116.27 L 91.9 110.08 L 90.46 103.76 L 90.97 97.55 L 91.09 97.79 L 92.24 95.92 L 94.7 96.65 L 96.41 95.9 L 97.34 93.59 L 99.31 93.35 C 109.96 88.08 117.52 82.84 122.42 77.33 C 127.57 71.53 130.17 64.77 130.17 57.23 C 130.17 49.03 127.55 42.61 122.38 38.16 C 117.38 33.87 110.2 31.7 101.03 31.7 C 94.94 31.7 88.73 32.57 82.6 34.3 C 78.16 35.55 73.27 37.36 68 39.7 L 67.41 39.7 L 68.33 37.73 L 67.95 35.75 L 67.06 33.78 L 67.42 31.8 L 68 29.83 C 79.49 23.48 91.84 20.27 104.76 20.27 C 117.51 20.27 127.55 23.4 134.6 29.58 C 141.6 35.71 145 43.99 145 54.89 C 145 64.3 142.07 72.34 136.04 79.46 M 139.87 23.56 C 131.32 16.07 119.5 12.27 104.76 12.27 C 89.66 12.27 75.26 16.23 61.98 24.05 C 60.75 24.77 60 26.08 60 27.51 L 60.29 27.51 L 60.89 31.2 L 60.26 34.9 L 60.76 38.6 L 59.77 42.3 L 60 46 C 60 47.38 60.72 48.66 61.89 49.39 C 63.06 50.12 64.53 50.2 65.77 49.59 C 72.82 46.12 79.22 43.57 84.77 42.01 C 90.2 40.48 95.67 39.7 101.03 39.7 C 108.23 39.7 113.66 41.22 117.17 44.23 C 120.54 47.13 122.17 51.38 122.17 57.23 C 122.17 62.83 120.3 67.66 116.43 72.01 C 112.29 76.68 105.33 81.44 95.74 86.19 L 95.42 85.57 L 93.56 87.2 L 91.35 88.13 L 89.52 89.84 L 87.16 90.49 L 85.03 91.57 C 83.61 92.29 82.74 93.78 82.83 95.37 L 81.88 95.32 L 82.59 102.88 L 82.74 110.4 L 83.96 117.98 L 83.62 125.47 L 84.93 133.06 C 85.04 135.18 86.8 136.84 88.92 136.84 L 88.92 137.02 L 92.74 137.61 L 96.56 136.85 L 100.38 136.09 L 104.19 136.96 L 108.01 136.84 C 110.22 136.84 112.01 135.05 112.01 132.84 L 111.04 132.84 L 111.58 127.45 L 111.99 122.06 L 111.94 116.68 L 111.89 111.29 L 112.01 105.9 C 125.45 99.55 135.58 92.4 142.16 84.62 C 149.35 76.12 153 66.11 153 54.89 C 153 41.73 148.58 31.19 139.87 23.56" fill="#00a8e8" stroke="none" pointer-events="all"/></g><g style="filter: drop-shadow(rgba(0, 0, 0, 0.25) 6px 9px 6px);"><rect x="153" y="105" width="61.47" height="116.94" fill="none" stroke="none" pointer-events="all"/><path d="M 183.9 214.46 C 182.55 215.84 180.79 216.52 178.53 216.52 C 176.26 216.52 174.5 215.84 173.15 214.46 C 171.78 213.05 171.11 211.25 171.11 208.95 C 171.11 206.66 171.78 204.86 173.15 203.45 C 174.5 202.06 176.26 201.39 178.53 201.39 C 180.79 201.39 182.55 202.06 183.9 203.45 C 185.27 204.86 185.94 206.66 185.94 208.95 C 185.94 211.25 185.27 213.05 183.9 214.46 M 178.53 196.1 C 174.81 196.1 171.72 197.33 169.36 199.76 C 167.01 202.17 165.82 205.26 165.82 208.95 C 165.82 212.64 167.01 215.74 169.36 218.15 C 171.72 220.58 174.81 221.81 178.53 221.81 C 182.24 221.81 185.33 220.58 187.69 218.15 C 190.03 215.73 191.23 212.64 191.23 208.95 C 191.23 205.26 190.03 202.17 187.69 199.76 C 185.33 197.33 182.24 196.1 178.53 196.1 M 203.26 149.54 C 199.18 154.37 192.58 158.87 183.64 162.92 C 182.7 163.35 182.09 164.29 182.09 165.33 L 182.6 165.33 L 182.21 168.7 L 182.61 172.07 L 182.86 175.44 L 181.87 178.81 L 182.09 182.18 L 182.09 181.8 L 180.6 183.16 L 179.1 181.74 L 177.61 182.73 L 176.11 181.94 L 174.62 182.18 L 175.34 182.22 L 174.01 178.02 L 174.12 173.9 L 173.87 169.77 L 174.54 165.68 L 173.47 161.5 L 173.02 160.61 L 174.58 160.97 L 175.27 159.59 L 176.54 159.35 L 177.51 158.55 L 178.98 158.73 C 186.02 155.24 191.02 151.78 194.26 148.13 C 197.66 144.3 199.38 139.83 199.38 134.85 C 199.38 129.43 197.65 125.19 194.23 122.25 C 190.93 119.41 186.18 117.97 180.12 117.97 C 176.09 117.97 171.99 118.55 167.94 119.7 C 165 120.52 161.77 121.72 158.29 123.27 L 158.92 123.27 L 159.21 121.96 L 157.9 120.66 L 158.57 119.35 L 158.34 118.04 L 158.29 116.74 C 165.88 112.55 174.05 110.42 182.58 110.42 C 191.01 110.42 197.65 112.49 202.31 116.57 C 206.93 120.63 209.18 126.1 209.18 133.3 C 209.18 139.52 207.25 144.84 203.26 149.54 M 205.79 112.6 C 200.14 107.64 192.33 105.13 182.58 105.13 C 172.6 105.13 163.09 107.75 154.31 112.92 C 153.5 113.4 153 114.26 153 115.2 L 152.6 115.2 L 153.12 117.65 L 152.39 120.09 L 152.64 122.54 L 153.85 124.98 L 153 127.43 C 153 128.34 153.47 129.19 154.25 129.67 C 155.02 130.15 155.99 130.2 156.81 129.8 C 161.48 127.51 165.7 125.82 169.37 124.79 C 172.96 123.78 176.57 123.26 180.12 123.26 C 184.88 123.26 188.47 124.27 190.79 126.26 C 193.01 128.17 194.09 130.99 194.09 134.85 C 194.09 138.55 192.85 141.75 190.3 144.62 C 187.56 147.7 182.96 150.85 176.62 153.99 L 176.53 153.82 L 175 154.29 L 173.83 155.5 L 172.78 156.94 L 171.16 157.23 L 169.54 157.55 C 168.6 158.02 168.03 159.01 168.09 160.06 L 167.91 160.05 L 168.82 165.07 L 169.54 170.08 L 168.06 174.96 L 169.71 180.02 L 169.48 184.97 C 169.55 186.37 170.71 187.47 172.11 187.47 L 172.11 187.49 L 174.64 186.58 L 177.16 187.16 L 179.69 187.48 L 182.21 188.06 L 184.73 187.47 C 186.2 187.47 187.38 186.29 187.38 184.82 L 187.89 184.82 L 186.6 181.26 L 187.04 177.7 L 187.84 174.14 L 188.04 170.58 L 187.38 167.02 C 196.26 162.82 202.96 158.09 207.3 152.96 C 212.06 147.33 214.47 140.72 214.47 133.3 C 214.47 124.61 211.55 117.64 205.79 112.6" fill="#00a8e8" stroke="none" pointer-events="all"/></g><g style="filter: drop-shadow(rgba(0, 0, 0, 0.25) 6px 9px 6px);"><rect x="60" y="221.94" width="33.15" height="63.06" fill="none" stroke="none" pointer-events="all"/><path d="M 76.66 280.97 C 75.94 281.71 74.99 282.08 73.77 282.08 C 72.54 282.08 71.59 281.71 70.87 280.97 C 70.13 280.21 69.77 279.24 69.77 278 C 69.77 276.76 70.13 275.79 70.87 275.03 C 71.59 274.28 72.54 273.92 73.77 273.92 C 74.99 273.92 75.93 274.28 76.66 275.03 C 77.4 275.79 77.76 276.76 77.76 278 C 77.76 279.24 77.4 280.21 76.66 280.97 M 73.77 271.07 C 71.76 271.07 70.1 271.73 68.82 273.04 C 67.56 274.34 66.92 276.01 66.92 278 C 66.92 279.99 67.56 281.66 68.82 282.96 C 70.1 284.27 71.76 284.93 73.77 284.93 C 75.77 284.93 77.43 284.27 78.71 282.96 C 79.97 281.65 80.62 279.99 80.62 278 C 80.62 276.01 79.97 274.34 78.71 273.04 C 77.43 271.73 75.77 271.07 73.77 271.07 M 87.11 245.96 C 84.91 248.56 81.35 250.99 76.53 253.17 C 76.02 253.41 75.69 253.91 75.69 254.47 L 74.89 254.47 L 76.44 256.29 L 75.17 258.11 L 75.24 259.93 L 75.76 261.74 L 75.69 263.56 L 71.66 263.56 L 72.65 263.61 L 71.53 261.33 L 71.49 259.1 L 70.34 256.82 L 70.63 254.61 L 71.04 252.41 L 74.01 250.91 C 77.81 249.03 80.5 247.17 82.25 245.2 C 84.08 243.13 85.01 240.72 85.01 238.04 C 85.01 235.11 84.08 232.83 82.24 231.24 C 80.45 229.71 77.89 228.93 74.62 228.93 C 72.45 228.93 70.24 229.25 68.06 229.86 C 66.47 230.31 64.73 230.95 62.85 231.79 L 62.85 228.27 C 66.95 226.01 71.35 224.86 75.95 224.86 C 80.5 224.86 84.08 225.98 86.59 228.18 C 89.09 230.37 90.3 233.32 90.3 237.2 C 90.3 240.56 89.25 243.42 87.11 245.96 M 88.47 226.03 C 85.42 223.36 81.21 222.01 75.95 222.01 C 70.57 222.01 65.44 223.42 60.7 226.21 C 60.27 226.47 60 226.93 60 227.44 L 60.71 227.44 L 59.48 228.76 L 60.8 230.08 L 59.61 231.4 L 60.25 232.71 L 60 234.03 C 60 234.53 60.26 234.98 60.67 235.24 C 61.09 235.5 61.61 235.53 62.06 235.31 C 64.57 234.07 66.85 233.16 68.83 232.61 C 70.76 232.06 72.71 231.79 74.62 231.79 C 77.19 231.79 79.13 232.33 80.38 233.4 C 81.58 234.44 82.16 235.95 82.16 238.04 C 82.16 240.03 81.49 241.75 80.11 243.3 C 78.64 244.97 76.16 246.67 72.74 248.36 L 68.92 250.28 C 68.41 250.53 68.11 251.06 68.14 251.63 L 68.45 251.65 L 68.91 254.35 L 68.14 256.99 L 68.16 259.67 L 68.33 262.36 L 68.89 265.07 C 68.93 265.82 69.55 266.41 70.31 266.41 L 70.31 266.23 L 71.67 266.78 L 73.03 267.15 L 74.39 265.77 L 75.75 266.56 L 77.11 266.41 C 77.9 266.41 78.54 265.77 78.54 264.99 L 78.58 264.99 L 78.02 263.07 L 77.61 261.15 L 78.25 259.23 L 78.39 257.3 L 78.54 255.38 C 83.33 253.12 86.94 250.57 89.29 247.8 C 91.85 244.77 93.15 241.2 93.15 237.2 C 93.15 232.51 91.58 228.76 88.47 226.03" fill="#00a8e8" stroke="none" pointer-events="all"/></g><g style="filter: drop-shadow(rgba(0, 0, 0, 0.25) 6px 9px 6px);"><rect x="120" y="221.94" width="63" height="119.85" fill="none" stroke="none" pointer-events="all"/><path d="M 151.67 334.12 C 150.29 335.54 148.48 336.23 146.16 336.23 C 143.84 336.23 142.03 335.54 140.65 334.12 C 139.25 332.68 138.56 330.83 138.56 328.48 C 138.56 326.13 139.25 324.28 140.65 322.84 C 142.03 321.42 143.84 320.73 146.16 320.73 C 148.48 320.73 150.28 321.42 151.67 322.84 C 153.07 324.28 153.76 326.13 153.76 328.48 C 153.76 330.83 153.07 332.68 151.67 334.12 M 146.16 315.3 C 142.35 315.3 139.19 316.56 136.76 319.06 C 134.36 321.53 133.14 324.7 133.14 328.48 C 133.14 332.26 134.36 335.43 136.77 337.91 C 139.19 340.39 142.35 341.65 146.16 341.65 C 149.97 341.65 153.13 340.39 155.55 337.9 C 157.96 335.43 159.18 332.26 159.18 328.48 C 159.18 324.7 157.96 321.53 155.55 319.06 C 153.13 316.57 149.97 315.3 146.16 315.3 M 171.51 267.59 C 167.33 272.54 160.57 277.15 151.41 281.3 C 150.44 281.74 149.81 282.71 149.81 283.77 L 149.78 283.77 L 150.28 287.23 L 149.41 290.68 L 150.21 294.13 L 150.28 297.59 L 149.81 301.04 L 149.81 301.28 L 148.28 300.62 L 146.75 301.71 L 145.22 301.08 L 143.69 300.72 L 142.15 301.04 L 142.47 301.06 L 142.51 296.83 L 141.65 292.56 L 142 288.35 L 140.34 284.03 L 140.98 279.84 L 141.15 280.18 L 141.81 278.68 L 142.88 277.99 L 143.94 277.29 L 145.8 278.16 L 146.63 277 C 153.84 273.43 158.96 269.88 162.28 266.15 C 165.77 262.22 167.54 257.64 167.54 252.53 C 167.54 246.98 165.76 242.63 162.26 239.62 C 158.87 236.71 154 235.24 147.79 235.24 C 143.67 235.24 139.46 235.83 135.31 237 C 132.3 237.85 128.99 239.07 125.42 240.66 L 125.86 240.66 L 124.65 239.32 L 124.52 237.98 L 126.24 236.65 L 125.87 235.31 L 125.42 233.97 C 133.2 229.67 141.57 227.5 150.32 227.5 C 158.96 227.5 165.76 229.62 170.53 233.8 C 175.28 237.96 177.58 243.56 177.58 250.95 C 177.58 257.32 175.6 262.77 171.51 267.59 M 174.11 229.72 C 168.31 224.65 160.31 222.08 150.32 222.08 C 140.09 222.08 130.34 224.76 121.34 230.06 C 120.51 230.55 120 231.43 120 232.4 L 119.48 232.4 L 120.36 234.9 L 120.16 237.41 L 120.29 239.91 L 120.57 242.42 L 120 244.92 C 120 245.86 120.49 246.73 121.28 247.22 C 122.07 247.72 123.07 247.77 123.91 247.36 C 128.69 245.01 133.02 243.28 136.78 242.22 C 140.46 241.18 144.16 240.66 147.79 240.66 C 152.67 240.66 156.35 241.69 158.73 243.73 C 161.01 245.69 162.12 248.57 162.12 252.53 C 162.12 256.32 160.85 259.6 158.23 262.55 C 155.42 265.71 150.71 268.94 144.21 272.15 L 144.05 271.83 L 142.97 273.3 L 141.38 273.76 L 140 274.63 L 138.53 275.33 L 136.95 275.8 C 135.99 276.28 135.41 277.29 135.47 278.37 L 135.27 278.36 L 136.54 283.52 L 135.26 288.54 L 136.52 293.7 L 136.29 298.78 L 136.89 303.9 C 136.96 305.34 138.15 306.46 139.59 306.46 L 139.59 306.97 L 142.18 307.2 L 144.76 307.36 L 147.35 307 L 149.94 306.2 L 152.52 306.46 C 154.02 306.46 155.23 305.25 155.23 303.75 L 154.28 303.75 L 155.11 300.1 L 155.92 296.45 L 155.69 292.8 L 156.23 289.15 L 155.23 285.5 C 164.34 281.2 171.2 276.36 175.65 271.09 C 180.53 265.33 183 258.55 183 250.95 C 183 242.03 180.01 234.9 174.11 229.72" fill="#00a8e8" stroke="none" pointer-events="all"/></g><g style="filter: drop-shadow(rgba(0, 0, 0, 0.25) 6px 9px 6px);"><rect x="11.07" y="128.88" width="48.93" height="93.06" fill="none" stroke="none" pointer-events="all"/><path d="M 35.67 216 C 34.59 217.1 33.19 217.64 31.39 217.64 C 29.58 217.64 28.18 217.1 27.11 216 C 26.02 214.88 25.49 213.44 25.49 211.61 C 25.49 209.79 26.02 208.35 27.11 207.23 C 28.18 206.13 29.58 205.59 31.39 205.59 C 33.19 205.59 34.59 206.13 35.67 207.23 C 36.76 208.36 37.29 209.79 37.29 211.61 C 37.29 213.44 36.76 214.87 35.67 216 M 31.39 201.38 C 28.43 201.38 25.97 202.36 24.09 204.3 C 22.22 206.22 21.28 208.68 21.28 211.61 C 21.28 214.55 22.22 217.01 24.09 218.94 C 25.97 220.87 28.43 221.85 31.39 221.85 C 34.35 221.85 36.8 220.87 38.68 218.93 C 40.55 217.01 41.5 214.55 41.5 211.61 C 41.5 208.68 40.55 206.22 38.68 204.3 C 36.8 202.36 34.35 201.38 31.39 201.38 M 51.08 164.32 C 47.83 168.17 42.58 171.75 35.46 174.97 C 34.71 175.31 34.23 176.06 34.23 176.89 L 34.18 176.89 L 33.87 179.57 L 35.04 182.26 L 33.4 184.94 L 34.87 187.62 L 34.23 190.3 L 28.28 190.3 L 27.81 190.28 L 27.46 186.97 L 26.98 183.67 L 28 180.44 L 27.79 177.15 L 27.36 173.84 L 31.75 171.63 C 37.36 168.86 41.33 166.1 43.91 163.2 C 46.62 160.15 47.99 156.59 47.99 152.63 C 47.99 148.31 46.61 144.94 43.89 142.6 C 41.26 140.34 37.48 139.2 32.66 139.2 C 29.45 139.2 26.19 139.66 22.96 140.57 C 20.62 141.22 18.05 142.18 15.28 143.41 L 15.28 138.21 C 21.33 134.87 27.82 133.18 34.62 133.18 C 41.33 133.18 46.61 134.83 50.32 138.08 C 54 141.31 55.79 145.66 55.79 151.4 C 55.79 156.35 54.25 160.58 51.08 164.32 M 53.09 134.91 C 48.59 130.97 42.38 128.97 34.62 128.97 C 26.67 128.97 19.1 131.06 12.11 135.17 C 11.47 135.55 11.07 136.24 11.07 136.99 L 10.6 136.99 L 11.44 138.94 L 10.2 140.88 L 12.07 142.83 L 10.76 144.77 L 11.07 146.72 C 11.07 147.45 11.45 148.12 12.06 148.5 C 12.68 148.89 13.45 148.93 14.11 148.61 C 17.82 146.78 21.18 145.44 24.1 144.62 C 26.96 143.81 29.83 143.41 32.66 143.41 C 36.44 143.41 39.3 144.21 41.15 145.79 C 42.92 147.31 43.78 149.55 43.78 152.63 C 43.78 155.57 42.79 158.12 40.76 160.41 C 38.58 162.86 34.92 165.37 29.87 167.87 L 29.58 167.28 L 28.49 167.93 L 27.83 169.42 L 26.7 169.98 L 25.25 169.91 L 24.24 170.7 C 23.49 171.07 23.04 171.86 23.08 172.7 L 22.56 172.67 L 22.62 176.63 L 23.99 180.65 L 22.87 184.55 L 24.19 188.57 L 24.18 192.53 C 24.25 193.64 25.17 194.51 26.29 194.51 L 26.29 194.61 L 28.29 195.07 L 30.3 194.03 L 32.31 194.62 L 34.32 195.04 L 36.33 194.51 C 37.49 194.51 38.44 193.57 38.44 192.41 L 38.69 192.41 L 38.88 189.57 L 39.39 186.74 L 37.6 183.9 L 37.56 181.07 L 38.44 178.24 C 45.51 174.89 50.84 171.13 54.3 167.04 C 58.08 162.57 60 157.3 60 151.4 C 60 144.48 57.68 138.93 53.09 134.91" fill="#00a8e8" stroke="none" pointer-events="all"/></g></g></svg>